PathFileType	4	(X/Y/Z)	Patient4_TMGait_0pt3_03_left_21.trc.trc
DataRate	CameraRate	NumFrames	NumMarkers	Units	OrigDataRate	OrigDataStartFrame	OrigNumFrames
53.846153846154	53.846153846154	7	33	mm	53.846153846154	89	       141
Frame#	Time	Sacral			L.Shoulder			Chest			R.Shoulder			Neck			R.ASIS			L.ASIS			R.Thigh.Superior			R.Thigh.Lateral			R.Thigh.Inferior			R.Patella			L.Thigh.Superior			L.Thigh.Lateral			L.Thigh.Inferior			L.Patella			L.Shank.Superior			L.Shank.Lateral			L.Shank.Inferior			R.Shank.Superior			R.Shank.Lateral			R.Shank.Inferior			R.Heel			R.Midfoot.Superior			R.Midfoot.Lateral			R.Toe			L.Heel			L.Midfoot.Lateral			L.Midfoot.Superior			L.Toe			L.Elbow			L.Wrist			R.Elbow			R.Wrist			
		X1	Y1	Z1	X2	Y2	Z2	X3	Y3	Z3	X4	Y4	Z4	X5	Y5	Z5	X6	Y6	Z6	X7	Y7	Z7	X8	Y8	Z8	X9	Y9	Z9	X10	Y10	Z10	X11	Y11	Z11	X12	Y12	Z12	X13	Y13	Z13	X14	Y14	Z14	X15	Y15	Z15	X16	Y16	Z16	X17	Y17	Z17	X18	Y18	Z18	X19	Y19	Z19	X20	Y20	Z20	X21	Y21	Z21	X22	Y22	Z22	X23	Y23	Z23	X24	Y24	Z24	X25	Y25	Z25	X26	Y26	Z26	X27	Y27	Z27	X28	Y28	Z28	X29	Y29	Z29	X30	Y30	Z30	X31	Y31	Z31	X32	Y32	Z32	X33	Y33	Z33	

89	38.104285714286	729.484473809454	1002.741511197833	493.103003569507	921.076548752342	1430.400530738917	326.189729139647	1005.753742219829	1364.772287478721	497.841861130928	903.174827826006	1437.137628623499	661.679954567257	878.444784886053	1492.005789789604	481.327104797665	949.792152880529	942.096466758566	631.023139814243	957.224667477616	955.957632716803	356.373746596705	1007.202869615682	746.194918395666	599.919546706604	936.322992205647	632.820881825550	662.894544199138	1017.655781160521	584.976000676565	582.833749827969	1026.806045660350	496.210264762724	592.457914190698	960.264919867231	724.810888531497	378.046176837502	849.530108279634	629.069034756771	305.982995321801	912.568929291715	533.395415310661	365.602072884875	897.318068630131	459.868624655757	368.173625372040	845.939889376013	400.555027858452	357.067203046595	725.552527238217	323.964784825421	297.253332553481	735.315696671229	196.984707914996	359.024942401062	997.876191720677	406.452950632960	602.810911804438	928.998321692357	305.147264659243	671.144194873420	968.817951543164	207.686875558629	610.493308557193	833.244446387105	43.930371689158	591.795415272190	1005.720972227865	97.577809074849	622.922983996427	918.286527373604	37.365978296276	664.013378840400	1126.131791127981	44.277140574899	647.974051958968	566.493980479558	73.698980521561	385.703218432280	643.111194475450	53.856393169247	311.589295387803	734.556057145652	101.262880786719	341.405434077072	851.172549776773	37.095780243473	321.458750373497	1004.195072777938	1102.644460779978	182.538917459388	1257.523267093344	1042.869851704747	186.567611274647	795.557724330144	1105.772505431420	770.189465888482	807.463545985906	845.753788517856	795.978311039436	
90	38.122857142857	731.133715948513	1003.616611233113	499.568478346253	921.354985085712	1431.218234620962	330.851943832775	1007.409217247712	1365.557443186083	501.866904132106	906.061680013936	1437.828197746231	666.419658345282	879.836803109368	1492.922136632001	486.150787691688	952.240096595699	942.841037824608	635.929166422062	957.823164793420	956.719237482271	361.226402172887	1007.547792218241	745.774244926599	604.716472154699	935.152185528210	632.849625196489	666.782479589129	1016.046411297289	584.498190917063	586.636772082702	1024.274004395070	495.629471580111	595.541713254182	963.491491794992	726.073691568337	381.937471331034	854.367363509728	629.312874783979	309.690275381809	919.734961157184	533.785064286971	368.127803250614	904.853878128690	459.053779489001	369.558653509966	851.149335630174	400.690745936109	358.585792368265	728.252121233368	327.853684252684	299.240308367559	735.729709006754	199.784005410573	359.039268717571	994.742323379249	406.135631126833	605.195059472529	925.292520715386	304.809934466681	672.755252102529	964.405702708320	207.488922233838	611.392112844545	827.947772168461	43.982312276035	591.886857258289	1000.419699368771	97.625918063480	623.205469350565	912.976795823464	37.431170640324	664.079045261286	1120.852595634616	44.027375191689	648.278356182790	563.749574590186	81.433265794512	385.538061039073	639.349184867250	58.316033259171	311.501302603835	732.540656222478	102.573048805040	340.682824759698	845.976494186437	36.711859379203	321.410288691863	998.628120415615	1100.739289018281	188.674877763549	1249.467023597794	1030.200704576922	191.440136462088	805.402652580222	1104.297195388113	777.314324651952	823.541353491225	844.758543068585	803.891100223973	
91	38.141428571429	732.502237578989	1004.447212528929	505.861396464622	921.594453919124	1431.829473642528	335.251428697919	1008.949658108759	1366.191744458995	505.679610058538	908.856150009447	1438.534576149844	670.878150453185	881.196449075789	1493.742584192616	490.675902573101	954.283146868897	943.474870826898	640.802051337721	958.204113065141	957.366264796418	366.043928034492	1007.450363435857	745.313613867568	609.512329667831	933.527237878030	632.802115280168	670.654869863877	1014.035658487235	583.997343163214	590.468193520977	1021.323572763713	495.067808361969	598.698291411427	967.001526295477	727.438149041377	385.940258508306	859.961651814611	629.411550561265	313.361166196398	927.775816347104	534.233105698409	370.867946390911	913.334881088838	458.256374301463	371.093385395756	857.300615216881	400.850162687227	360.178072292277	731.934902516368	332.016258715088	301.289869267923	736.893430655990	202.939655539689	359.112534502476	991.268105738856	405.829661119623	607.650428895679	921.257801404349	304.447632874991	674.381487038792	959.834336398654	207.321938356336	612.355084435167	822.621489209859	44.029360541629	591.966034378924	995.079066734159	97.661878105289	623.480673233077	907.646961836060	37.480578546569	664.131311504198	1115.528053064199	43.827987309822	648.546424024103	561.695888490154	90.207083942328	385.443955608442	635.990527012710	63.583984340364	311.449553293178	730.983097584101	104.168454837222	339.985845206672	840.755583804911	36.217156015682	321.363261833176	992.702708287351	1098.497000555127	195.027042878427	1240.131207734419	1016.012253058138	196.461211897718	815.729183651318	1102.835786695578	784.158983359684	840.775679958226	843.982286147660	811.372421909501	
92	38.160000000000	733.560876482328	1005.189979987077	511.945784731510	921.762608870286	1432.197801157884	339.385333887133	1010.339918789224	1366.638051338962	509.277838644469	911.513990019721	1439.202151170849	675.058696534967	882.496030947973	1494.419112803728	494.905968334540	955.940253381022	943.966473982509	645.588647801398	958.357195864662	957.880086286510	370.770832779962	1007.033933401802	744.831303064853	614.167944237213	931.677000438094	632.670028115685	674.442299705513	1011.818056168482	583.474815834509	594.214807228653	1018.192590998105	494.490928322047	601.837914947687	970.772772750837	728.909351450704	390.059281655777	866.294151584061	629.388551883464	316.999749143609	936.604353770369	534.779557806024	373.896877021109	922.690250469889	457.528762198455	372.870239799624	864.367643926177	401.052771208109	361.914073375751	736.621829048348	336.457118924252	303.429067789769	738.810313626926	206.487301640420	359.310975968268	987.637435101936	405.494814142365	610.107007123307	917.058452601102	304.059527436945	676.004921852353	955.171825690216	207.150425654239	613.346862077768	817.237070180022	44.075371971207	592.038513500916	989.687495301711	97.668539964706	623.739513159558	902.266677969782	37.513412621391	664.179195875907	1110.143185538132	43.640567727733	648.776834860499	560.421928167946	100.084622662619	385.478570618183	633.104743080622	69.782679019264	311.480340841454	729.884095422765	106.157215466062	339.382006086810	835.509399181038	35.579347795123	321.319701020143	986.434502882787	1095.929587367694	201.580347767934	1229.327678309322	1000.429328998458	201.607841720533	826.446941576162	1101.369666076945	790.676818803556	859.159752446922	843.471900801482	818.371472716406	
93	38.178571428571	734.287799332579	1005.806945402368	517.790640282962	921.827080035761	1432.298693223742	343.256752965851	1011.550751700646	1366.864528067356	512.659642590925	914.000641787734	1439.773074968447	678.969230951535	883.709597613619	1494.908441409541	498.851224049401	957.237683946073	944.285635200368	650.229532306500	958.271628835891	958.248305098875	375.350774743205	1006.424241125548	744.335741586636	618.572540845279	929.810130389281	632.438998744792	678.079598296500	1009.588609349649	582.926938090971	597.784946495861	1015.121117490156	493.860571132774	604.880967377344	974.776468653432	730.502125771222	394.300589198823	873.332542780114	629.279792074778	320.621090307372	946.124254785699	535.474506266948	377.283494207081	932.840969621408	456.928876389023	374.980482802162	872.308465194463	401.318440221098	363.870821953082	742.312833104828	341.176058664208	305.696614955573	741.468587756767	210.458511871242	359.714916722198	984.034705430180	405.091047156955	612.497553696998	912.856178067599	303.643452604426	677.601948558258	950.488833157385	206.942818616538	614.334092995933	811.783102928452	44.122526473582	592.111225947190	984.241903649069	97.640545996184	623.979023805918	896.822171905428	37.530378136807	664.231657859061	1104.694937260737	43.446413971426	648.973451132978	560.002727309925	111.090328780642	385.720632438094	630.763771483366	77.011146700498	311.657100917073	729.243865676832	108.655936562368	338.951280375455	830.256643090258	34.785726665304	321.287769061675	979.844934574902	1093.068103883917	208.303721210482	1216.877147688841	983.631028893796	206.862713894399	837.448978631213	1099.881748663186	796.825413889101	878.650612144988	843.288121570498	824.842642767338	
94	38.197142857143	734.671881014003	1006.260183405013	523.369024371192	921.757181265576	1432.116726317719	346.873111788479	1012.560636956271	1366.841727968739	515.822093306448	916.294168042981	1440.186549237219	682.620616395241	884.813932298428	1495.171153659970	502.526421804340	958.204502013433	944.400949078836	654.664237550574	957.935974328069	958.459709423742	379.731585694742	1005.743057286709	743.822805432646	622.649162679984	928.107301016311	632.085853068758	681.505284645872	1007.534349141970	582.344056442712	601.106997535708	1012.337606589605	493.134715438210	607.756207039345	978.973155170088	732.234419783241	398.665557736819	881.024607942203	629.127455581321	324.246494052193	956.229558915062	536.371125878842	381.078051218196	943.697488974908	456.514190682774	377.500427579078	881.060266482244	401.665851405577	366.120405917078	748.977565219009	346.161813904131	308.141349946113	744.841472542720	214.870529322088	360.412134618927	980.636146007564	404.577836966889	614.756787392595	908.801540464452	303.194539181719	679.140881306812	945.854912657034	206.670888017027	615.283669357937	806.262000586080	44.172896128976	592.190313372053	978.746573546629	97.581079612347	624.199409856876	891.312973757439	37.534037083483	664.295504065951	1099.189018311356	43.240974068666	649.143181626629	560.492704831704	123.180862139870	386.267889299250	629.040347916323	85.317845595220	312.058519546433	729.068043000756	111.770801445368	338.781409891577	825.046841605727	33.854382508560	321.282131731911	972.957096867325	1089.957154363601	215.147954311669	1202.624622300297	965.855187776703	212.214837612095	848.624633792520	1098.353790773692	802.569366713460	899.173580713450	843.501515013548	830.744640915239	
95	38.215714285714	734.715460977994	1006.506079983721	528.658357378189	921.525675463082	1431.641437434016	350.244519584460	1013.356319889208	1366.540047404488	518.761107677602	918.385192623265	1440.379606897507	686.025073738542	885.788946935652	1495.170395687014	505.948654488222	958.870605859365	944.278484685760	658.837148875258	957.337545946891	958.499350251209	383.869828578730	1005.104469958493	743.275897717527	626.351334752400	926.720925174646	631.578037520848	684.660282137321	1005.827368783859	581.710059928894	604.122669688635	1010.047945114335	492.268415818026	610.395868504800	983.308451888520	734.118627786773	403.144056638326	889.291494038015	628.972999503814	327.896514436364	966.802744822438	537.517671042157	385.299346075613	955.156936055777	456.335600217023	380.476394833379	890.535984933303	402.110980969082	368.715801059657	756.548169145956	351.384944356791	310.817229153558	748.889667183711	219.713589965515	361.487305335232	977.603151802994	403.913800840612	616.819819741954	905.028382095357	302.704581849927	680.580799177992	941.335715946026	206.308975544364	616.160766545520	800.685790301280	44.229243136711	592.279587986095	973.211500498676	97.498482260232	624.401175566988	885.747928918826	37.528796325590	664.373932931058	1093.636526713289	43.027991946842	649.294008447164	561.921020754273	136.216537932050	387.229691240393	628.007474511485	94.671939658837	312.772141121901	729.375015559736	115.574065168194	338.960356871936	819.974572603035	32.842170874693	321.322257561506	965.789963299127	1086.647034679571	222.046074907457	1186.456309841885	947.396416552097	217.657930395949	859.871613322075	1096.764332067856	807.882968520701	920.629018533322	844.188590610848	836.040266906893	
